<svg width="25" height="22" viewBox="0 0 25 22" fill="none" xmlns="http://www.w3.org/2000/svg">
<path d="M12.958 0.460504C13.251 0.165644 13.6484 0 14.0627 0C14.477 0 14.8744 0.165644 15.1674 0.460504L24.5425 9.8975C24.8354 10.1925 25 10.5924 25 11.0095C25 11.4266 24.8354 11.8265 24.5425 12.1215L15.1674 21.5585C14.8727 21.845 14.478 22.0035 14.0683 21.9999C13.6586 21.9964 13.2667 21.8309 12.977 21.5393C12.6873 21.2477 12.523 20.8532 12.5194 20.4408C12.5159 20.0284 12.6734 19.6311 12.958 19.3345L19.6659 12.5823H1.56252C1.14811 12.5823 0.750682 12.4166 0.457652 12.1217C0.164623 11.8267 0 11.4266 0 11.0095C0 10.5924 0.164623 10.1923 0.457652 9.89733C0.750682 9.60237 1.14811 9.43666 1.56252 9.43666H19.6659L12.958 2.68449C12.6651 2.38954 12.5005 1.98956 12.5005 1.5725C12.5005 1.15544 12.6651 0.755454 12.958 0.460504Z" fill="#0D0D0D"/>
</svg>
